<svg xmlns="http://www.w3.org/2000/svg" width="300" height="300" viewBox="0 0 300 300"><rect width="100%" height="100%" fill="#DDDDDD"/><path fill="#999999" d="M64.57 155.17h8.96v3.44H60.4V136.2h4.17v18.97Zm18.37-12.71q1.77 0 3.22.57 1.44.58 2.48 1.63 1.03 1.05 1.58 2.57.56 1.52.56 3.4 0 1.89-.56 3.41-.55 1.52-1.58 2.59-1.04 1.07-2.48 1.64-1.45.57-3.22.57-1.78 0-3.24-.57-1.46-.57-2.49-1.64-1.03-1.07-1.59-2.59-.57-1.52-.57-3.41 0-1.88.57-3.4.56-1.52 1.59-2.57 1.03-1.05 2.49-1.63 1.46-.57 3.24-.57Zm0 13.44q1.98 0 2.94-1.34.95-1.33.95-3.9t-.95-3.92q-.96-1.35-2.94-1.35-2.02 0-2.98 1.35-.97 1.36-.97 3.92 0 2.56.97 3.9.96 1.34 2.98 1.34Zm14.15-12.23.23 1.8q.75-1.43 1.77-2.24 1.02-.82 2.42-.82 1.1 0 1.76.48l-.24 2.87q-.08.28-.23.4-.15.11-.39.11-.24 0-.69-.08-.46-.07-.89-.07-.64 0-1.14.18-.49.19-.89.54-.39.35-.69.84-.31.5-.57 1.13v9.8h-3.83v-15.9h2.25q.59 0 .82.21.23.21.31.75Zm11.21 5.16h7.22q0-.74-.21-1.4-.21-.66-.63-1.16-.42-.49-1.06-.78-.64-.29-1.49-.29-1.66 0-2.62.95-.95.94-1.21 2.68Zm9.76 2.31h-9.84q.09 1.22.43 2.11.34.9.9 1.48t1.33.87q.76.28 1.69.28.93 0 1.61-.21.67-.22 1.18-.49.5-.26.88-.48.38-.21.74-.21.48 0 .71.35l1.1 1.4q-.64.74-1.43 1.25-.79.5-1.65.8-.86.3-1.75.43-.89.12-1.73.12-1.65 0-3.08-.55-1.43-.55-2.48-1.63-1.05-1.07-1.66-2.66-.6-1.59-.6-3.68 0-1.63.52-3.06.53-1.44 1.51-2.5.99-1.06 2.41-1.68 1.42-.62 3.2-.62 1.5 0 2.77.48t2.19 1.4q.91.92 1.43 2.27.52 1.34.52 3.06 0 .86-.19 1.17-.18.3-.71.3Zm7.6 7.47h-3.83v-15.9h2.34q.74 0 .98.69l.24 1.18q.42-.46.88-.85.46-.39.98-.67.51-.28 1.11-.44.6-.16 1.31-.16 1.5 0 2.47.81.97.82 1.45 2.16.37-.79.93-1.35.56-.57 1.23-.92.66-.36 1.42-.53.75-.17 1.51-.17 1.31 0 2.34.4 1.02.4 1.72 1.18.7.78 1.06 1.89.36 1.12.36 2.56v10.12h-3.82v-10.12q0-1.52-.67-2.29t-1.95-.77q-.59 0-1.1.21-.5.2-.88.58-.38.38-.6.95-.21.57-.21 1.32v10.12h-3.85v-10.12q0-1.6-.64-2.33t-1.88-.73q-.84 0-1.56.42-.72.41-1.34 1.12v11.64Zm22.01-7.77v-3.19h8.03v3.19h-8.03Zm16.47-14.64v22.41h-4.18V136.2h4.18Zm8.23 11.16v7.13q.65.79 1.42 1.11.77.33 1.67.33.87 0 1.56-.33.7-.32 1.19-.99.49-.67.75-1.68.26-1.02.26-2.4 0-1.39-.22-2.36t-.64-1.57q-.42-.61-1.02-.89-.6-.28-1.35-.28-1.2 0-2.04.51-.83.5-1.58 1.42Zm-.51-3.96.31 1.48q.98-1.1 2.22-1.79 1.24-.68 2.91-.68 1.3 0 2.38.55 1.08.54 1.86 1.57t1.21 2.54q.43 1.51.43 3.46 0 1.79-.48 3.31t-1.37 2.63q-.9 1.12-2.16 1.74-1.26.63-2.83.63-1.33 0-2.28-.41-.94-.41-1.69-1.14v6.51h-3.82v-21.09h2.34q.74 0 .97.69Zm24.86 1.03-.86 1.38q-.16.25-.33.35-.17.1-.43.1-.28 0-.6-.16-.32-.15-.74-.35-.41-.19-.95-.35-.53-.15-1.26-.15-1.13 0-1.78.48-.64.48-.64 1.25 0 .52.33.87.34.34.89.61.55.26 1.24.47.7.21 1.42.46t1.42.56q.7.32 1.25.81.55.49.88 1.17.33.68.33 1.64 0 1.15-.41 2.12-.41.97-1.21 1.67-.81.71-1.99 1.1-1.19.4-2.74.4-.82 0-1.6-.15-.79-.15-1.51-.41t-1.33-.62q-.61-.36-1.08-.78l.89-1.45q.17-.27.4-.4.23-.14.59-.14.35 0 .67.2.32.2.74.43.42.23.98.44.57.2 1.44.2.68 0 1.17-.17.48-.16.8-.42.32-.27.47-.61.14-.35.14-.73 0-.55-.33-.91t-.88-.62q-.55-.26-1.26-.47-.7-.21-1.44-.46t-1.44-.58q-.71-.33-1.26-.85-.55-.51-.88-1.25-.33-.75-.33-1.8 0-.98.38-1.86.39-.88 1.14-1.54.76-.66 1.88-1.06 1.12-.39 2.6-.39 1.64 0 2.99.54 1.35.54 2.24 1.43Zm12.93-1.72h3.83v15.9h-2.34q-.76 0-.96-.7l-.27-1.27q-.97.99-2.15 1.61-1.18.61-2.77.61-1.31 0-2.31-.44-1-.45-1.68-1.25-.68-.81-1.03-1.92-.35-1.1-.35-2.44v-10.1h3.83v10.1q0 1.46.68 2.26.67.8 2.02.8.99 0 1.86-.45.87-.44 1.64-1.21v-11.5Zm11.44 15.9h-3.83v-15.9h2.34q.75 0 .98.69l.25 1.18q.42-.46.87-.85.46-.39.98-.67t1.12-.44q.59-.16 1.3-.16 1.51 0 2.48.81.97.82 1.45 2.16.37-.79.93-1.35.55-.57 1.22-.92.67-.36 1.42-.53.75-.17 1.51-.17 1.32 0 2.34.4 1.02.4 1.72 1.18.7.78 1.06 1.89.37 1.12.37 2.56v10.12h-3.83v-10.12q0-1.52-.67-2.29-.66-.77-1.95-.77-.59 0-1.09.21-.51.2-.89.58-.38.38-.59.95-.22.57-.22 1.32v10.12h-3.84v-10.12q0-1.6-.65-2.33-.64-.73-1.88-.73-.84 0-1.56.42-.72.41-1.34 1.12v11.64Z"/></svg>