<svg xmlns="http://www.w3.org/2000/svg" width="420" height="420" viewBox="0 0 420 420"><rect width="100%" height="100%" fill="#DDDDDD"/><path fill="#999999" d="M91.5 217.175h12.43v4.77H85.72v-31.09h5.78v26.32Zm25.48-17.63q2.45 0 4.46.79 2.01.8 3.44 2.26 1.43 1.46 2.2 3.57.78 2.11.78 4.71 0 2.62-.78 4.73-.77 2.1-2.2 3.59-1.43 1.48-3.44 2.28-2.01.79-4.46.79-2.48 0-4.5-.79-2.02-.8-3.45-2.28-1.43-1.49-2.21-3.59-.79-2.11-.79-4.73 0-2.6.79-4.71.78-2.11 2.21-3.57t3.45-2.26q2.02-.79 4.5-.79Zm0 18.64q2.75 0 4.07-1.85 1.32-1.85 1.32-5.42t-1.32-5.44q-1.32-1.87-4.07-1.87-2.8 0-4.14 1.88-1.35 1.88-1.35 5.43t1.35 5.41q1.34 1.86 4.14 1.86Zm19.63-16.97.32 2.5q1.03-1.98 2.45-3.11 1.42-1.13 3.35-1.13 1.53 0 2.46.67l-.35 3.98q-.11.38-.31.54-.21.17-.55.17-.32 0-.96-.11-.63-.11-1.23-.11-.88 0-1.57.26-.69.26-1.24.74t-.97 1.17q-.41.69-.78 1.57v13.59h-5.31v-22.06h3.12q.81 0 1.14.29.32.29.43 1.04Zm15.54 7.16h10.02q0-1.03-.29-1.94-.29-.92-.87-1.6-.58-.69-1.47-1.09-.9-.4-2.08-.4-2.3 0-3.62 1.31-1.32 1.32-1.69 3.72Zm13.55 3.21h-13.66q.13 1.7.61 2.93.47 1.24 1.24 2.04.78.81 1.84 1.21 1.06.4 2.35.4 1.3 0 2.23-.3.94-.31 1.63-.67.7-.37 1.23-.67.53-.3 1.02-.3.67 0 .99.5l1.53 1.93q-.88 1.03-1.98 1.73t-2.29 1.12q-1.19.42-2.43.59-1.24.17-2.4.17-2.3 0-4.28-.76-1.97-.76-3.44-2.26-1.46-1.49-2.3-3.7-.84-2.2-.84-5.1 0-2.26.74-4.25.73-1.99 2.09-3.46 1.37-1.47 3.33-2.33 1.97-.86 4.44-.86 2.09 0 3.85.66 1.77.67 3.03 1.95 1.27 1.28 1.99 3.14t.72 4.24q0 1.21-.25 1.63-.26.42-.99.42Zm10.53 10.36h-5.31v-22.06h3.25q1.03 0 1.35.97l.35 1.63q.58-.64 1.21-1.18.63-.54 1.35-.92.73-.39 1.55-.62.83-.22 1.82-.22 2.09 0 3.43 1.13 1.34 1.12 2.01 2.99.52-1.09 1.29-1.88.77-.78 1.7-1.28.92-.49 1.96-.73 1.05-.23 2.1-.23 1.83 0 3.25.56 1.42.55 2.38 1.63.97 1.07 1.48 2.62.5 1.55.5 3.55v14.04h-5.31v-14.04q0-2.11-.92-3.17-.93-1.07-2.71-1.07-.82 0-1.52.28-.7.28-1.22.81-.53.53-.83 1.32-.3.8-.3 1.83v14.04h-5.33v-14.04q0-2.21-.9-3.22-.89-1.02-2.61-1.02-1.16 0-2.16.57-1 .57-1.86 1.56v16.15Zm30.53-10.77v-4.43h11.14v4.43h-11.14Zm22.86-20.32v31.09h-5.81v-31.09h5.81Zm11.41 15.48v9.89q.91 1.1 1.97 1.55 1.06.45 2.31.45 1.2 0 2.17-.45t1.65-1.38q.67-.92 1.04-2.33.37-1.41.37-3.32 0-1.94-.32-3.28-.31-1.34-.89-2.18-.58-.84-1.41-1.23-.82-.39-1.88-.39-1.65 0-2.81.7-1.17.7-2.2 1.97Zm-.71-5.48.43 2.04q1.36-1.53 3.08-2.47 1.72-.95 4.04-.95 1.81 0 3.3.75 1.49.76 2.58 2.19t1.68 3.52q.59 2.1.59 4.81 0 2.47-.67 4.58-.67 2.1-1.9 3.65-1.24 1.55-2.99 2.42-1.75.87-3.92.87-1.85 0-3.16-.57-1.32-.57-2.35-1.58v9.03h-5.31v-29.26h3.25q1.03 0 1.35.97Zm34.49 1.42-1.21 1.91q-.21.34-.45.48-.23.14-.6.14-.39 0-.83-.21-.44-.22-1.02-.48-.58-.27-1.32-.49-.74-.21-1.75-.21-1.57 0-2.46.66-.9.67-.9 1.74 0 .71.47 1.2.46.48 1.22.85.76.36 1.73.65.97.29 1.97.64 1 .34 1.97.78.96.44 1.73 1.12.76.68 1.22 1.62.47.95.47 2.28 0 1.59-.57 2.94-.57 1.34-1.69 2.32-1.12.98-2.77 1.53-1.64.54-3.79.54-1.14 0-2.23-.2-1.08-.2-2.08-.57-1-.37-1.85-.86-.85-.49-1.49-1.08l1.22-2.02q.24-.36.56-.56.32-.19.82-.19.49 0 .93.28.44.28 1.02.6.58.33 1.37.6.78.28 1.99.28.94 0 1.62-.22.68-.23 1.12-.59.44-.37.64-.85.21-.49.21-1 0-.78-.46-1.27-.47-.49-1.23-.86t-1.74-.66q-.98-.29-2-.63t-2-.81q-.98-.46-1.74-1.17t-1.23-1.74q-.46-1.03-.46-2.49 0-1.36.54-2.58.54-1.23 1.58-2.14 1.04-.92 2.6-1.46 1.56-.55 3.6-.55 2.28 0 4.15.75 1.87.75 3.12 1.98Zm17.93-2.39h5.31v22.06h-3.25q-1.05 0-1.33-.97l-.36-1.76q-1.36 1.38-2.99 2.22-1.64.85-3.85.85-1.81 0-3.19-.61-1.39-.61-2.34-1.73-.94-1.12-1.43-2.65-.48-1.54-.48-3.39v-14.02h5.31v14.02q0 2.02.93 3.13.94 1.1 2.81 1.1 1.38 0 2.58-.61 1.2-.61 2.28-1.69v-15.95Zm15.87 22.06h-5.31v-22.06h3.24q1.03 0 1.36.97l.34 1.63q.58-.64 1.22-1.18.63-.54 1.35-.92.72-.39 1.55-.62.83-.22 1.81-.22 2.09 0 3.43 1.13 1.35 1.12 2.01 2.99.52-1.09 1.29-1.88.78-.78 1.7-1.28.93-.49 1.97-.73 1.04-.23 2.1-.23 1.82 0 3.24.56 1.42.55 2.39 1.63.97 1.07 1.47 2.62.51 1.55.51 3.55v14.04h-5.31v-14.04q0-2.11-.93-3.17-.92-1.07-2.71-1.07-.81 0-1.51.28t-1.23.81q-.52.53-.83 1.32-.3.8-.3 1.83v14.04h-5.33v-14.04q0-2.21-.89-3.22-.89-1.02-2.61-1.02-1.16 0-2.16.57-1 .57-1.86 1.56v16.15Z"/></svg>