<svg xmlns="http://www.w3.org/2000/svg" width="480" height="480" viewBox="0 0 480 480"><rect width="100%" height="100%" fill="#DDDDDD"/><path fill="#999999" d="M104.97 248.17h14.16v5.44H98.38v-35.43h6.59v29.99ZM134 228.08q2.79 0 5.08.91 2.3.9 3.92 2.57 1.63 1.67 2.52 4.07.88 2.4.88 5.36 0 2.99-.88 5.39-.89 2.4-2.52 4.09-1.62 1.69-3.92 2.6-2.29.91-5.08.91-2.82 0-5.12-.91-2.3-.91-3.93-2.6-1.63-1.69-2.53-4.09-.89-2.4-.89-5.39 0-2.96.89-5.36.9-2.4 2.53-4.07 1.63-1.67 3.93-2.57 2.3-.91 5.12-.91Zm0 21.24q3.14 0 4.64-2.1 1.51-2.11 1.51-6.18t-1.51-6.2q-1.5-2.13-4.64-2.13-3.18 0-4.72 2.15-1.53 2.14-1.53 6.18 0 4.04 1.53 6.16 1.54 2.12 4.72 2.12Zm22.37-19.33.37 2.84q1.17-2.25 2.79-3.54 1.62-1.28 3.82-1.28 1.74 0 2.8.76l-.4 4.53q-.12.44-.35.62-.23.19-.63.19-.36 0-1.09-.12-.72-.13-1.41-.13-1 0-1.78.3-.79.29-1.41.84-.63.55-1.11 1.34-.47.78-.89 1.79v15.48h-6.05v-25.14h3.55q.93 0 1.3.33t.49 1.19Zm17.71 8.16h11.42q0-1.18-.33-2.22-.33-1.04-.99-1.82-.66-.79-1.68-1.24-1.02-.45-2.37-.45-2.62 0-4.12 1.49-1.51 1.5-1.93 4.24Zm15.44 3.65h-15.56q.15 1.94.69 3.35.54 1.4 1.42 2.32.88.92 2.09 1.37 1.22.46 2.69.46 1.46 0 2.53-.35 1.07-.34 1.86-.75.8-.42 1.4-.76.6-.35 1.16-.35.76 0 1.13.57l1.74 2.2q-1 1.18-2.25 1.97-1.25.8-2.61 1.28-1.36.48-2.77.67-1.41.2-2.73.2-2.63 0-4.88-.87t-3.92-2.57q-1.67-1.71-2.62-4.22-.96-2.51-.96-5.82 0-2.57.84-4.84.83-2.26 2.39-3.94 1.55-1.68 3.79-2.66 2.24-.98 5.06-.98 2.38 0 4.39.76t3.45 2.22q1.45 1.46 2.27 3.57.82 2.12.82 4.84 0 1.38-.29 1.85-.3.48-1.13.48Zm12 11.81h-6.05v-25.14h3.7q1.18 0 1.54 1.11l.4 1.86q.66-.74 1.38-1.35.72-.61 1.54-1.05.82-.44 1.77-.7.94-.26 2.07-.26 2.37 0 3.91 1.29 1.53 1.28 2.29 3.42.58-1.25 1.47-2.15.88-.89 1.93-1.46 1.06-.56 2.24-.83 1.19-.27 2.39-.27 2.09 0 3.7.64 1.62.63 2.72 1.86t1.68 2.99q.58 1.76.58 4.04v16h-6.06v-16q0-2.4-1.05-3.61t-3.09-1.21q-.93 0-1.72.31-.8.32-1.4.92-.6.6-.94 1.51-.35.91-.35 2.08v16h-6.07v-16q0-2.52-1.02-3.67t-2.98-1.15q-1.32 0-2.46.64-1.14.65-2.12 1.78v18.4Zm34.79-12.27v-5.05H249v5.05h-12.69Zm26.05-23.16v35.43h-6.62v-35.43h6.62Zm13.01 17.64v11.27q1.02 1.25 2.24 1.77 1.21.51 2.63.51 1.37 0 2.48-.51 1.1-.52 1.87-1.57t1.19-2.66q.42-1.6.42-3.78 0-2.21-.36-3.74-.36-1.53-1.02-2.49-.66-.95-1.6-1.39-.94-.44-2.15-.44-1.88 0-3.2.79-1.33.8-2.5 2.24Zm-.81-6.24.49 2.32q1.54-1.74 3.5-2.81 1.96-1.08 4.61-1.08 2.05 0 3.76.85 1.7.86 2.94 2.49 1.24 1.63 1.91 4.02.67 2.39.67 5.48 0 2.81-.76 5.21t-2.17 4.17q-1.4 1.76-3.4 2.76-2 .99-4.47.99-2.11 0-3.6-.65-1.5-.65-2.67-1.8v10.29h-6.06v-33.35h3.7q1.18 0 1.55 1.11Zm39.3 1.61-1.38 2.18q-.24.39-.51.55-.27.16-.69.16-.44 0-.94-.24-.5-.25-1.16-.55-.67-.31-1.51-.55-.85-.25-2-.25-1.79 0-2.8.76-1.02.76-1.02 1.98 0 .81.53 1.36.52.56 1.39.97.87.42 1.98.75 1.1.33 2.24.72 1.14.39 2.24.9 1.1.5 1.97 1.27.87.77 1.4 1.85.52 1.08.52 2.6 0 1.81-.64 3.34-.65 1.53-1.93 2.65-1.27 1.11-3.15 1.74-1.87.62-4.32.62-1.3 0-2.54-.23-1.23-.23-2.37-.65-1.14-.42-2.11-.98t-1.7-1.23l1.39-2.3q.27-.41.64-.63.37-.23.93-.23.57 0 1.07.32.5.32 1.16.69.66.37 1.56.68.89.32 2.26.32 1.08 0 1.85-.25.78-.26 1.28-.68.5-.41.73-.97.24-.55.24-1.13 0-.89-.53-1.45-.53-.56-1.4-.98-.87-.42-1.98-.75-1.12-.33-2.28-.72-1.16-.39-2.28-.92-1.11-.53-1.98-1.33-.87-.81-1.4-1.99-.53-1.17-.53-2.84 0-1.54.62-2.94.61-1.4 1.8-2.44 1.18-1.04 2.96-1.66 1.78-.63 4.1-.63 2.6 0 4.73.86 2.13.86 3.56 2.25Zm20.43-2.72h6.05v25.14h-3.7q-1.2 0-1.52-1.1l-.41-2.01q-1.55 1.57-3.41 2.53-1.86.97-4.39.97-2.05 0-3.63-.7-1.58-.69-2.66-1.97-1.08-1.27-1.63-3.02-.55-1.76-.55-3.86v-15.98h6.05v15.98q0 2.3 1.06 3.56 1.07 1.26 3.2 1.26 1.57 0 2.94-.69 1.37-.7 2.6-1.93v-18.18Zm18.08 25.14h-6.05v-25.14h3.7q1.17 0 1.54 1.11l.39 1.86q.66-.74 1.39-1.35.72-.61 1.54-1.05.82-.44 1.76-.7.95-.26 2.07-.26 2.38 0 3.91 1.29 1.53 1.28 2.29 3.42.59-1.25 1.47-2.15.89-.89 1.94-1.46 1.05-.56 2.24-.83 1.19-.27 2.39-.27 2.08 0 3.7.64 1.62.63 2.72 1.86t1.68 2.99q.57 1.76.57 4.04v16h-6.05v-16q0-2.4-1.05-3.61-1.06-1.21-3.09-1.21-.93 0-1.73.31-.79.32-1.39.92-.6.6-.95 1.51-.34.91-.34 2.08v16h-6.08v-16q0-2.52-1.01-3.67-1.02-1.15-2.98-1.15-1.32 0-2.46.64-1.14.65-2.12 1.78v18.4Z"/></svg>