<svg xmlns="http://www.w3.org/2000/svg" width="512" height="512" viewBox="0 0 512 512"><rect width="100%" height="100%" fill="#DDDDDD"/><path fill="#999999" d="M110.7 265.01h15.61V271h-22.87v-39.04h7.26v33.05Zm32-22.14q3.07 0 5.6 1 2.52.99 4.32 2.83 1.79 1.84 2.77 4.48.97 2.65.97 5.92 0 3.29-.97 5.94-.98 2.64-2.77 4.5-1.8 1.87-4.32 2.87-2.53.99-5.6.99-3.11 0-5.65-.99-2.54-1-4.33-2.87-1.8-1.86-2.78-4.5-.99-2.65-.99-5.94 0-3.27.99-5.92.98-2.64 2.78-4.48 1.79-1.84 4.33-2.83 2.54-1 5.65-1Zm0 23.41q3.45 0 5.11-2.33 1.66-2.32 1.66-6.8t-1.66-6.83q-1.66-2.35-5.11-2.35-3.51 0-5.2 2.36-1.69 2.36-1.69 6.82 0 4.45 1.69 6.79t5.2 2.34Zm24.65-21.31.4 3.13q1.3-2.48 3.08-3.9 1.78-1.41 4.21-1.41 1.92 0 3.08.83l-.43 5q-.14.48-.39.69-.26.2-.69.2-.41 0-1.2-.14-.8-.13-1.56-.13-1.1 0-1.97.32-.86.33-1.55.93-.69.61-1.21 1.47-.53.87-.99 1.98V271h-6.67v-27.7h3.92q1.02 0 1.43.36.4.37.54 1.31Zm19.52 8.99h12.58q0-1.29-.36-2.44-.37-1.15-1.1-2.01-.73-.87-1.85-1.37-1.12-.5-2.6-.5-2.89 0-4.55 1.65-1.66 1.65-2.12 4.67Zm17.01 4.03h-17.15q.16 2.13.76 3.68.59 1.55 1.56 2.57.98 1.01 2.31 1.51 1.34.5 2.96.5 1.62 0 2.79-.38 1.18-.38 2.06-.84.87-.46 1.54-.83.66-.38 1.28-.38.83 0 1.24.62l1.92 2.43q-1.11 1.3-2.49 2.17-1.37.88-2.87 1.41-1.5.52-3.05.74-1.56.21-3.01.21-2.89 0-5.38-.95-2.48-.96-4.32-2.84-1.83-1.87-2.89-4.64-1.05-2.77-1.05-6.42 0-2.83.92-5.33.92-2.49 2.63-4.34 1.72-1.85 4.19-2.93 2.47-1.08 5.57-1.08 2.62 0 4.83.83 2.22.84 3.81 2.45 1.59 1.6 2.5 3.94.9 2.33.9 5.33 0 1.51-.32 2.04t-1.24.53ZM217.11 271h-6.67v-27.7h4.08q1.29 0 1.7 1.21l.43 2.06q.73-.82 1.52-1.49.8-.67 1.71-1.16.9-.49 1.94-.77t2.28-.28q2.62 0 4.31 1.41 1.68 1.42 2.52 3.77.65-1.38 1.62-2.36.97-.99 2.13-1.61 1.17-.62 2.48-.92 1.3-.29 2.63-.29 2.29 0 4.07.7 1.79.7 3 2.05 1.22 1.35 1.85 3.29.64 1.95.64 4.46V271h-6.67v-17.63q0-2.65-1.16-3.98-1.17-1.34-3.41-1.34-1.02 0-1.9.35-.88.35-1.54 1.01t-1.04 1.66q-.38 1-.38 2.3V271h-6.69v-17.63q0-2.78-1.12-4.05t-3.28-1.27q-1.46 0-2.72.72-1.25.71-2.33 1.95V271Zm60.02-39.04V271h-7.29v-39.04h7.29Zm14.34 19.44v12.42q1.13 1.38 2.47 1.94 1.33.57 2.9.57 1.51 0 2.73-.57 1.21-.56 2.06-1.73.85-1.16 1.31-2.93.46-1.76.46-4.17 0-2.43-.39-4.11-.39-1.69-1.12-2.75-.73-1.05-1.77-1.53-1.04-.49-2.36-.49-2.08 0-3.54.88-1.46.87-2.75 2.47Zm-.9-6.89.54 2.57q1.71-1.92 3.87-3.11 2.16-1.18 5.07-1.18 2.27 0 4.15.94 1.87.95 3.24 2.74 1.36 1.8 2.1 4.43t.74 6.03q0 3.11-.83 5.75-.84 2.65-2.39 4.59-1.55 1.95-3.75 3.04-2.21 1.09-4.93 1.09-2.32 0-3.97-.71-1.65-.72-2.94-1.98v11.33h-6.67V243.3h4.07q1.3 0 1.7 1.21Zm43.31 1.79-1.51 2.4q-.27.43-.57.61-.29.17-.75.17-.49 0-1.04-.27-.56-.27-1.28-.61-.73-.33-1.66-.6-.94-.27-2.21-.27-1.97 0-3.09.83-1.12.84-1.12 2.19 0 .89.58 1.5t1.54 1.07q.96.45 2.18.82 1.21.36 2.47.79 1.25.44 2.47.99 1.21.55 2.17 1.4.96.86 1.54 2.04.58 1.19.58 2.86 0 2-.72 3.69-.71 1.69-2.12 2.92-1.4 1.23-3.46 1.91-2.07.69-4.77.69-1.43 0-2.79-.25-1.37-.26-2.62-.72-1.26-.46-2.33-1.08-1.06-.62-1.87-1.35l1.54-2.54q.29-.46.7-.7.4-.24 1.02-.24.63 0 1.18.35.55.35 1.28.75.73.41 1.72.76.98.35 2.49.35 1.19 0 2.04-.28.85-.29 1.41-.74.55-.46.81-1.07.25-.61.25-1.26 0-.97-.58-1.59-.58-.62-1.54-1.08-.96-.46-2.18-.82-1.23-.37-2.51-.8-1.29-.43-2.52-1.01-1.22-.58-2.18-1.47-.96-.89-1.54-2.19-.58-1.3-.58-3.13 0-1.7.67-3.24.68-1.54 1.99-2.69t3.26-1.84q1.96-.68 4.53-.68 2.86 0 5.21.94 2.35.95 3.91 2.49Zm22.52-3h6.67V271h-4.08q-1.32 0-1.67-1.22l-.46-2.21q-1.7 1.73-3.75 2.8-2.06 1.06-4.84 1.06-2.26 0-4.01-.77-1.74-.77-2.93-2.17-1.18-1.41-1.79-3.34-.61-1.93-.61-4.25v-17.6h6.67v17.6q0 2.54 1.18 3.93 1.17 1.39 3.52 1.39 1.73 0 3.24-.77 1.51-.77 2.86-2.12V243.3Zm19.93 27.7h-6.67v-27.7h4.07q1.3 0 1.71 1.21l.43 2.06q.73-.82 1.52-1.49.8-.67 1.7-1.16.91-.49 1.95-.77t2.28-.28q2.62 0 4.31 1.41 1.68 1.42 2.52 3.77.65-1.38 1.62-2.36.97-.99 2.13-1.61 1.16-.62 2.47-.92 1.31-.29 2.64-.29 2.29 0 4.07.7 1.79.7 3 2.05 1.22 1.35 1.85 3.29.63 1.95.63 4.46V271h-6.66v-17.63q0-2.65-1.17-3.98-1.16-1.34-3.4-1.34-1.02 0-1.9.35-.88.35-1.54 1.01t-1.04 1.66q-.38 1-.38 2.3V271h-6.69v-17.63q0-2.78-1.12-4.05t-3.28-1.27q-1.46 0-2.72.72-1.25.71-2.33 1.95V271Z"/></svg>