<svg xmlns="http://www.w3.org/2000/svg" width="800" height="800" viewBox="0 0 800 800"><rect width="100%" height="100%" fill="#DDDDDD"/><path fill="#999999" d="M174.025 413.675h23.7v9.1h-34.73v-59.29h11.03v50.19Zm48.59-33.62q4.67 0 8.51 1.52 3.83 1.51 6.56 4.3 2.72 2.79 4.2 6.81 1.47 4.01 1.47 8.97 0 5.01-1.47 9.02-1.48 4.02-4.2 6.85-2.73 2.83-6.56 4.35-3.84 1.51-8.51 1.51-4.72 0-8.57-1.51-3.85-1.52-6.58-4.35-2.73-2.83-4.22-6.85-1.5-4.01-1.5-9.02 0-4.96 1.5-8.97 1.49-4.02 4.22-6.81 2.73-2.79 6.58-4.3 3.85-1.52 8.57-1.52Zm0 35.54q5.25 0 7.77-3.52 2.52-3.53 2.52-10.33 0-6.81-2.52-10.38-2.52-3.56-7.77-3.56-5.33 0-7.89 3.58-2.57 3.59-2.57 10.36 0 6.76 2.57 10.31 2.56 3.54 7.89 3.54Zm37.43-32.34.62 4.75q1.96-3.77 4.67-5.92t6.4-2.15q2.91 0 4.67 1.27l-.66 7.58q-.2.74-.59 1.05-.39.3-1.05.3-.61 0-1.82-.2-1.21-.21-2.36-.21-1.68 0-2.99.5-1.31.49-2.36 1.41-1.04.92-1.84 2.23-.8 1.32-1.5 3v25.91h-10.13v-42.07h5.95q1.56 0 2.17.56.62.55.82 1.99Zm29.64 13.65h19.11q0-1.97-.55-3.71-.56-1.74-1.66-3.06-1.11-1.31-2.81-2.07-1.7-.76-3.96-.76-4.39 0-6.91 2.51-2.52 2.5-3.22 7.09Zm25.83 6.11h-26.03q.25 3.24 1.15 5.59.9 2.36 2.38 3.9 1.47 1.54 3.5 2.3 2.03.75 4.49.75 2.46 0 4.24-.57 1.79-.57 3.12-1.27 1.33-.7 2.34-1.27 1-.58 1.94-.58 1.28 0 1.89.95l2.91 3.69q-1.68 1.96-3.77 3.3-2.09 1.33-4.37 2.13-2.27.8-4.63 1.13-2.36.32-4.57.32-4.39 0-8.16-1.45-3.77-1.46-6.56-4.31-2.79-2.85-4.39-7.05-1.6-4.2-1.6-9.74 0-4.3 1.4-8.09 1.39-3.8 3.99-6.6 2.61-2.81 6.36-4.45 3.75-1.64 8.47-1.64 3.97 0 7.34 1.27 3.36 1.27 5.78 3.71 2.42 2.44 3.79 5.99 1.37 3.54 1.37 8.09 0 2.3-.49 3.1-.49.8-1.89.8Zm20.09 19.76h-10.12v-42.07h6.19q1.97 0 2.58 1.85l.66 3.11q1.1-1.23 2.31-2.25 1.21-1.03 2.59-1.76 1.37-.74 2.95-1.17 1.58-.43 3.46-.43 3.98 0 6.54 2.15 2.57 2.15 3.84 5.72.98-2.09 2.46-3.59 1.47-1.49 3.24-2.44 1.76-.94 3.75-1.39 1.99-.45 3.99-.45 3.49 0 6.2 1.06 2.7 1.07 4.55 3.12 1.84 2.05 2.8 5 .97 2.95.97 6.77v26.77h-10.13v-26.77q0-4.02-1.76-6.05-1.76-2.03-5.17-2.03-1.56 0-2.89.53-1.33.54-2.34 1.54-1 1-1.57 2.52-.58 1.52-.58 3.49v26.77h-10.17v-26.77q0-4.23-1.7-6.15-1.7-1.93-4.98-1.93-2.21 0-4.12 1.09-1.91 1.08-3.55 2.97v30.79Zm58.22-20.54v-8.45h21.24v8.45h-21.24Zm43.59-38.75v59.29h-11.07v-59.29h11.07Zm21.77 29.52v18.86q1.72 2.1 3.75 2.96 2.03.86 4.41.86 2.29 0 4.14-.86 1.84-.86 3.13-2.63 1.3-1.76 1.99-4.45.7-2.68.7-6.33 0-3.69-.59-6.25-.6-2.57-1.71-4.17-1.1-1.59-2.68-2.33t-3.59-.74q-3.16 0-5.37 1.33t-4.18 3.75Zm-1.35-10.45.82 3.89q2.58-2.91 5.86-4.71 3.28-1.8 7.71-1.8 3.44 0 6.29 1.43t4.92 4.16q2.07 2.73 3.2 6.73 1.13 3.99 1.13 9.16 0 4.71-1.28 8.73-1.27 4.02-3.62 6.97-2.36 2.95-5.7 4.61-3.34 1.66-7.49 1.66-3.52 0-6.02-1.08-2.5-1.09-4.47-3.02v17.23h-10.13v-55.81h6.19q1.97 0 2.59 1.85Zm65.76 2.7-2.3 3.65q-.41.66-.86.93-.45.26-1.15.26-.73 0-1.57-.41-.84-.41-1.95-.92-1.11-.51-2.52-.92-1.42-.41-3.34-.41-3 0-4.7 1.27-1.7 1.27-1.7 3.32 0 1.35.88 2.28.88.92 2.34 1.61 1.45.7 3.3 1.26 1.84.55 3.75 1.21 1.91.65 3.75 1.49 1.85.84 3.3 2.13 1.46 1.29 2.34 3.1.88 1.8.88 4.34 0 3.04-1.09 5.6-1.08 2.56-3.21 4.43-2.14 1.86-5.27 2.91-3.14 1.05-7.24 1.05-2.17 0-4.24-.39-2.07-.39-3.98-1.09-1.91-.7-3.53-1.64-1.62-.94-2.85-2.05l2.34-3.85q.45-.7 1.07-1.07.61-.37 1.56-.37.94 0 1.78.53.84.54 1.95 1.15 1.1.62 2.6 1.15 1.5.53 3.79.53 1.81 0 3.1-.43t2.13-1.13q.84-.69 1.23-1.61.39-.93.39-1.91 0-1.48-.88-2.42t-2.34-1.64q-1.45-.7-3.32-1.25-1.87-.55-3.81-1.21-1.95-.66-3.82-1.54-1.86-.88-3.32-2.23-1.45-1.36-2.33-3.32-.89-1.97-.89-4.76 0-2.58 1.03-4.92 1.02-2.34 3.01-4.08 1.99-1.74 4.96-2.79 2.98-1.04 6.87-1.04 4.35 0 7.91 1.43 3.57 1.44 5.95 3.77Zm34.19-4.55h10.13v42.07h-6.19q-2.01 0-2.54-1.84l-.7-3.37q-2.58 2.63-5.7 4.25-3.11 1.62-7.34 1.62-3.44 0-6.09-1.17-2.64-1.17-4.44-3.3-1.81-2.14-2.73-5.07-.92-2.93-.92-6.45v-26.74h10.12v26.74q0 3.85 1.79 5.96 1.78 2.11 5.35 2.11 2.62 0 4.92-1.17 2.29-1.16 4.34-3.21v-30.43Zm30.26 42.07h-10.13v-42.07h6.2q1.96 0 2.58 1.85l.65 3.11q1.11-1.23 2.32-2.25 1.21-1.03 2.58-1.76 1.38-.74 2.96-1.17 1.57-.43 3.46-.43 3.98 0 6.54 2.15t3.83 5.72q.99-2.09 2.46-3.59 1.48-1.49 3.24-2.44 1.77-.94 3.75-1.39 1.99-.45 4-.45 3.49 0 6.19 1.06 2.71 1.07 4.55 3.12 1.85 2.05 2.81 5 .97 2.95.97 6.77v26.77h-10.13v-26.77q0-4.02-1.76-6.05-1.77-2.03-5.17-2.03-1.56 0-2.89.53-1.33.54-2.34 1.54-1 1-1.58 2.52-.57 1.52-.57 3.49v26.77h-10.17v-26.77q0-4.23-1.7-6.15-1.7-1.93-4.98-1.93-2.22 0-4.12 1.09-1.91 1.08-3.55 2.97v30.79Z"/></svg>