<svg xmlns="http://www.w3.org/2000/svg" viewBox="0 0 316.71 128.96"><path d="M65.37,95.73c-1.15-1.77-1.73-4.49-1.73-8.18V4.75A64.22,64.22,0,0,1,55.28,6q-4.56.43-9.6.43-3.69,0-7.63-.37V8.69q4.56,0,6.22,2.64c1.1,1.77,1.66,4.49,1.66,8.18V40.38a12.6,12.6,0,0,0-4.12-2.84,23.84,23.84,0,0,0-9.54-1.79,27,27,0,0,0-14.08,3.69,25.27,25.27,0,0,0-9.79,11Q4.83,57.77,4.84,69q0,11.81,3.2,19.25a23.23,23.23,0,0,0,8.92,11,24,24,0,0,0,13,3.57q6.65,0,10.77-3.38a17.81,17.81,0,0,0,5.23-7.65v10.54a48.46,48.46,0,0,1,8.3-1.35q4.49-.37,9.66-.37,3.81,0,7.63.37V98.37Q67.08,98.37,65.37,95.73ZM42.48,94.19A10.35,10.35,0,0,1,35,97.51a8.25,8.25,0,0,1-6.09-2.71q-2.66-2.7-4.06-8.91a77.73,77.73,0,0,1-1.42-16.67Q23.29,54,27,46.64t10-7.32a12.56,12.56,0,0,1,5.59,1.29,9.09,9.09,0,0,1,3.39,2.89V86.66A12.37,12.37,0,0,1,42.48,94.19Zm89.1-50.63a19.69,19.69,0,0,0-15.93-7.81,21.18,21.18,0,0,0-12.3,3.63,18.59,18.59,0,0,0-6.52,8V4.87a66.36,66.36,0,0,1-8.37,1.3c-3,.28-6.23.43-9.59.43-2.47,0-5-.13-7.63-.37V8.81q4.55,0,6.21,2.65t1.66,8.18V95.05a32.89,32.89,0,0,1-.18,3.44,20.84,20.84,0,0,1-.68,3.45l1.85,1.11a17.28,17.28,0,0,1,4.55-2.77,24,24,0,0,1,5.9-1.66A20.16,20.16,0,0,1,96,98.51a16.69,16.69,0,0,0,4.36,2.57,24.92,24.92,0,0,0,9.35,1.72,29.2,29.2,0,0,0,14-3.44A24.76,24.76,0,0,0,134,88.16q3.87-7.75,3.88-20.54Q137.92,51.38,131.58,43.56ZM116,92.59q-3.33,7.64-10.09,7.63a14.38,14.38,0,0,1-6-1.36,13.55,13.55,0,0,1-3.13-2V51.7a13.5,13.5,0,0,1,3.69-7.15A11,11,0,0,1,108.39,41a7.79,7.79,0,0,1,5.91,2.65q2.46,2.64,3.75,8.86a86.3,86.3,0,0,1,1.29,16.79Q119.34,85,116,92.59Zm60,5.9v2.59c-1.55-.08-3.89-.19-7-.31s-6.27-.18-9.47-.18-6.42.06-9.66.18-5.68.23-7.32.31V98.49q4.31,0,6.09-1.84t1.79-7V19.51c0-3.69-.56-6.41-1.67-8.18s-3.17-2.64-6.21-2.64V6.1q3.94.38,7.63.37,5,0,9.6-.43a64.22,64.22,0,0,0,8.36-1.29V89.64c0,3.44.6,5.78,1.78,7S173.18,98.49,176.05,98.49ZM237,49.78a23.5,23.5,0,0,0-10.58-10.71,38.57,38.57,0,0,0-31.31,0,23.74,23.74,0,0,0-10.7,10.71q-3.87,7.38-3.88,19.56t3.88,19.5a23.73,23.73,0,0,0,10.7,10.64,38.57,38.57,0,0,0,31.31,0A23.48,23.48,0,0,0,237,88.84q3.81-7.32,3.82-19.5T237,49.78Zm-18,43.3c-2.18,4.84-4.94,7.26-8.31,7.26s-6-2.42-8.24-7.26-3.32-12.75-3.32-23.74,1.11-18.93,3.32-23.81,5-7.32,8.24-7.32,6.13,2.44,8.31,7.32,3.26,12.82,3.26,23.81S221.1,88.24,218.93,93.08Zm80.64-49.76a6.18,6.18,0,0,0,2,4.49,6,6,0,0,0,3.88,1.48,6.41,6.41,0,0,0,4.42-1.79q2-1.78,2-5.47a7.24,7.24,0,0,0-8-7.75,14.2,14.2,0,0,0-8.92,3.2,18.57,18.57,0,0,0-3.86,4,19.1,19.1,0,0,0-6.29-3.72,39.81,39.81,0,0,0-25.1,0,18.38,18.38,0,0,0-8.73,6.4q-3.21,4.37-3.2,11.13T251,66.39a18.83,18.83,0,0,0,8.73,6.39,31.62,31.62,0,0,0,7.2,1.76,34.86,34.86,0,0,0-8.8,5.87,12.32,12.32,0,0,0-4.06,9.1,8.94,8.94,0,0,0,2.09,6.09A12.07,12.07,0,0,0,262,99.11a31.11,31.11,0,0,0,8.79,1.11h7.63q8.11,0,10.83,2.52a8.16,8.16,0,0,1,2.7,6.21,10.8,10.8,0,0,1-2.52,7.26,15.18,15.18,0,0,1-6.89,4.43,30.93,30.93,0,0,1-9.9,1.48q-8.13,0-12.86-2.77a8.72,8.72,0,0,1-4.73-7.94,10.12,10.12,0,0,1,1-4.49,11.85,11.85,0,0,1,3.38-4l-1.1-2q-6.77,1.71-10.21,4.73a8.92,8.92,0,0,0-3.45,6.83,8,8,0,0,0,3.38,6.46,23.21,23.21,0,0,0,9.35,3.94,64.71,64.71,0,0,0,13.6,1.29q12.3,0,20.3-3.14t11.87-8.3a18.32,18.32,0,0,0,3.87-11.2,13.89,13.89,0,0,0-3.13-9.41,17.54,17.54,0,0,0-8.49-5.23,42.56,42.56,0,0,0-12.12-1.6H269.92q-4.92,0-4.92-3.93a5.26,5.26,0,0,1,2-4.25c1-.81,2-1.59,3.14-2.33.68,0,1.38.05,2.09.05a35.22,35.22,0,0,0,12.55-2.09,18.83,18.83,0,0,0,8.73-6.39q3.19-4.3,3.2-11.08a18.36,18.36,0,0,0-3.2-11.13c-.18-.24-.36-.48-.57-.71a16.88,16.88,0,0,1,2.54-3.23,17.8,17.8,0,0,1,5.54-3.41A14,14,0,0,0,299.57,43.32ZM277.43,68.91c-1.23,2.5-3,3.75-5.17,3.75s-3.84-1.25-5.11-3.75-1.9-7-1.9-13.6.63-11.09,1.9-13.59,3-3.75,5.11-3.75,3.94,1.25,5.17,3.75,1.84,7,1.84,13.59S278.66,66.41,277.43,68.91Z" fill="#111827"/></svg>